<svg id="Layer_1" xmlns="http://www.w3.org/2000/svg" viewBox="0 0 227.2116241 227.1215057"><style>.st0{fill:#fff}</style><path class="st0" d="M227.212 113.564C227.212 50.85 176.345 0 113.603 0 50.86 0 0 50.85 0 113.564c0 29.969 11.707 57.147 30.678 77.438 7.504-8.86 16.538-16.03 26.888-21.27 12.175-6.17 25.279-9.295 38.966-9.295 21.734 0 42.502 8.114 58.487 22.845 8.068 7.441 14.549 16.236 19.312 26.148 31.748-20.142 52.88-55.5 52.88-95.866zm-59.81 44.096a7.595 7.595 0 0 1-6.239 3.256 7.565 7.565 0 0 1-4.305-1.346c-17.791-12.334-38.652-18.846-60.326-18.846-12.547 0-24.812 2.159-36.475 6.434-3.925 1.438-8.28-.579-9.716-4.503a7.568 7.568 0 0 1 4.505-9.714c13.335-4.88 27.358-7.365 41.686-7.365 24.78 0 48.621 7.453 68.957 21.557a7.57 7.57 0 0 1 1.913 10.527zm16.519-34.912a8.525 8.525 0 0 1-7.234 4.003 8.463 8.463 0 0 1-4.513-1.295c-22.656-14.16-48.813-21.64-75.642-21.64a143.009 143.009 0 0 0-43.716 6.812c-4.47 1.436-9.273-1.03-10.707-5.508-1.445-4.485 1.026-9.276 5.51-10.718 15.77-5.057 32.236-7.619 48.913-7.619 30.023 0 59.305 8.377 84.674 24.226 3.994 2.498 5.206 7.75 2.715 11.739zm3.553-31.595C160.001 75.018 128.551 66.49 96.532 66.49a180.382 180.382 0 0 0-50.925 7.315c-5.014 1.482-10.278-1.388-11.755-6.4-1.477-5.012 1.397-10.274 6.409-11.758a199.374 199.374 0 0 1 56.27-8.077c35.385 0 70.154 9.42 100.542 27.254 4.5 2.657 6.007 8.453 3.364 12.956a9.48 9.48 0 0 1-8.178 4.676 9.463 9.463 0 0 1-4.785-1.304zM96.532 200.497c-7.324 0-14.344 1.669-20.852 4.969a46.182 46.182 0 0 0-12.8 9.607c15.284 7.644 32.472 12.049 50.723 12.049 8.069 0 15.937-.871 23.528-2.461a45.923 45.923 0 0 0-9.283-11.924 46.077 46.077 0 0 0-31.316-12.24z"/></svg>