<svg xmlns="http://www.w3.org/2000/svg" viewBox="0 0 352.536438 330.8988953"><path fill="#FFF" d="M178.493 330.899c-.909 0-1.801-.026-2.694-.068h-.002a22.84 22.84 0 0 1-1.759.068c-20.885 0-34.29-9.475-47.252-18.64-8.95-6.325-17.397-12.295-27.349-13.953-4.856-.803-9.69-1.212-14.36-1.212-8.415 0-15.054 1.3-19.9 2.247-2.946.577-5.487 1.072-7.418 1.072-2.017 0-4.203-.436-5.153-3.683-.826-2.812-1.423-5.536-1.997-8.17-1.48-6.782-2.532-10.952-5.374-11.388C12.111 272.055 2.63 265.078.516 260.128a6.379 6.379 0 0 1-.51-2.12 3.729 3.729 0 0 1 3.12-3.887c50.92-8.385 73.754-60.429 74.702-62.639l.081-.18c3.117-6.316 3.727-11.799 1.82-16.292-3.494-8.236-14.891-11.855-22.435-14.248-1.846-.584-3.596-1.137-4.976-1.682-15.054-5.951-16.307-12.06-15.715-15.173 1.008-5.305 8.098-9.003 13.832-9.003 1.572 0 2.956.28 4.12.823 6.772 3.172 12.875 4.78 18.142 4.78 7.276 0 10.452-3.058 10.84-3.46-.185-3.445-.414-7.045-.648-10.759-1.517-24.074-3.396-53.987 4.22-71.062C109.936 4.043 158.343.066 172.636.066c.366 0 6.266-.062 6.266-.062l.846-.004c14.325 0 62.838 3.984 85.678 55.194 7.618 17.084 5.734 47.024 4.215 71.08l-.063 1.045c-.21 3.35-.414 6.606-.584 9.723.364.372 3.285 3.184 9.882 3.437h.007c5.013-.192 10.775-1.79 17.097-4.752 1.854-.865 3.912-1.048 5.313-1.048 2.14 0 4.309.414 6.11 1.166l.11.044c5.114 1.813 8.464 5.397 8.536 9.143.066 3.527-2.626 8.83-15.835 14.048-1.37.538-3.12 1.094-4.973 1.682-7.551 2.396-18.945 6.012-22.437 14.246-1.908 4.492-1.297 9.97 1.818 16.29.028.06.06.12.084.184.947 2.208 23.761 54.237 74.704 62.632a3.736 3.736 0 0 1 3.12 3.891 6.255 6.255 0 0 1-.52 2.13c-2.101 4.915-11.575 11.883-44.71 17.003-2.707.416-3.757 3.944-5.372 11.34-.587 2.692-1.182 5.337-2 8.117-.707 2.413-2.21 3.543-4.74 3.543h-.412c-1.756 0-4.252-.315-7.415-.935-5.61-1.098-11.9-2.109-19.902-2.109-4.674 0-9.509.409-14.368 1.212-9.941 1.658-18.382 7.617-27.316 13.932-12.988 9.186-26.391 18.66-47.282 18.66z"/></svg>