<svg id="Layer_1" xmlns="http://www.w3.org/2000/svg" viewBox="0 0 425.9745483 187.2527008"><style>.st0{fill:#fff}</style><path class="st0" d="M20.577 177.253c.88 0 1.623-.721 1.751-1.74l4.778-37.871-4.763-38.732c-.143-1.018-.886-1.747-1.766-1.747-.901 0-1.667.744-1.787 1.747l-4.178 38.732 4.178 37.856c.12 1.019.886 1.755 1.787 1.755zM4.824 162.851c.863 0 1.562-.672 1.69-1.676l3.703-23.533-3.703-23.974c-.128-.972-.827-1.674-1.69-1.674-.902 0-1.6.702-1.728 1.69L0 137.642l3.096 23.527c.127.994.826 1.682 1.728 1.682zM39.42 91.702c-.113-1.233-1.015-2.13-2.134-2.13-1.112 0-2.013.897-2.119 2.13l-3.99 45.94 3.99 44.266c.106 1.224 1.007 2.11 2.12 2.11 1.118 0 2.02-.886 2.132-2.11l4.515-44.266-4.515-45.94zM54.175 185.803c1.307 0 2.366-1.078 2.494-2.487l4.267-45.66-4.267-47.225c-.128-1.416-1.187-2.482-2.494-2.482-1.33 0-2.404 1.066-2.494 2.49l-3.772 47.218 3.772 45.66c.09 1.408 1.164 2.486 2.494 2.486zM71.176 186.543c1.525 0 2.75-1.221 2.878-2.855l-.016.011 4.02-46.042-4.02-43.814c-.112-1.608-1.337-2.848-2.862-2.848-1.547 0-2.765 1.24-2.855 2.86l-3.553 43.802 3.553 46.03c.09 1.635 1.308 2.856 2.855 2.856zM95.322 137.668l-3.771-71.24c-.106-1.807-1.51-3.245-3.238-3.245-1.714 0-3.118 1.438-3.223 3.245l-3.336 71.24L85.09 183.7c.105 1.814 1.51 3.234 3.223 3.234 1.728 0 3.132-1.42 3.238-3.234v.011l3.77-46.042zM105.622 187.008c1.901 0 3.478-1.577 3.569-3.591v.03l3.523-45.768-3.523-87.546c-.09-2.014-1.668-3.59-3.569-3.59-1.945 0-3.509 1.576-3.613 3.59l-3.103 87.546 3.117 45.753c.09 1.999 1.654 3.576 3.6 3.576zM123.03 38.868c-2.142 0-3.87 1.758-3.96 3.974l-2.885 94.853 2.885 45.271c.09 2.206 1.818 3.952 3.96 3.952 2.133 0 3.876-1.732 3.951-3.959v.022l3.275-45.286-3.275-94.853c-.075-2.231-1.818-3.974-3.952-3.974zM140.586 187.008c2.352 0 4.222-1.896 4.313-4.338v.026l3.027-45.001-3.027-98.039c-.09-2.434-1.96-4.338-4.313-4.338-2.366 0-4.267 1.904-4.304 4.338l-2.72 98.039 2.72 45.001c.037 2.416 1.938 4.312 4.304 4.312zM158.287 186.963c2.54 0 4.598-2.077 4.672-4.71v.04l2.788-44.59-2.788-95.545c-.074-2.633-2.133-4.703-4.672-4.703-2.554 0-4.613 2.07-4.688 4.703l-2.45 95.544 2.465 44.57c.06 2.614 2.119 4.691 4.673 4.691zM183.68 137.702l-2.524-92.061c-.06-2.84-2.284-5.072-5.041-5.072-2.765 0-4.99 2.231-5.05 5.09l-2.26 92.043 2.26 44.3c.06 2.817 2.285 5.048 5.05 5.048 2.757 0 4.98-2.231 5.04-5.09V182l2.525-44.299zM194.077 187.133c2.93 0 5.357-2.438 5.402-5.436v.022l2.291-43.994-2.29-109.551c-.046-3.01-2.472-5.444-5.403-5.444-2.93 0-5.349 2.446-5.409 5.458l-2.035 109.491 2.035 44.04c.06 2.976 2.48 5.414 5.41 5.414zM211.98 12.427c-3.162 0-5.732 2.625-5.785 5.826l-2.366 119.486 2.382 43.345c.037 3.16 2.607 5.778 5.77 5.778 3.118 0 5.732-2.618 5.747-5.83v.052l2.584-43.345-2.584-119.486c-.015-3.212-2.63-5.826-5.747-5.826zM228.35 187.173c.128.012 144.299.08 145.223.08 28.947 0 52.402-23.744 52.402-53.044 0-29.285-23.455-53.033-52.402-53.033a51.574 51.574 0 0 0-20.27 4.128C349.156 37.493 309.55 0 261.234 0c-11.81 0-23.327 2.36-33.5 6.345-3.958 1.547-5.018 3.144-5.048 6.235v168.317c.046 3.253 2.524 5.953 5.665 6.276z"/></svg>