<svg xmlns="http://www.w3.org/2000/svg" viewBox="0 0 164.2955933 201.5331879"><path fill-rule="evenodd" clip-rule="evenodd" fill="#999" d="M90.65 17.538C103.893.085 122.302 0 122.302 0s2.738 16.408-10.416 32.215C97.839 49.093 81.873 46.331 81.873 46.331s-2.997-13.274 8.778-28.793zM83.558 57.826c6.812 0 19.455-9.364 35.911-9.364 28.328 0 39.471 20.156 39.471 20.156s-21.795 11.144-21.795 38.183c0 30.503 27.15 41.015 27.15 41.015s-18.98 53.421-44.615 53.421c-11.775 0-20.929-7.935-33.335-7.935-12.643 0-25.19 8.231-33.36 8.231C29.574 201.533 0 150.858 0 110.124c0-40.077 25.033-61.1 48.513-61.1 15.264 0 27.11 8.802 35.045 8.802z"/></svg>