<svg xmlns="http://www.w3.org/2000/svg" viewBox="0 0 204.6 204.5"><path fill="#FFF" d="M26.3 0h152c14.4 0 26.3 11.8 26.3 26.3v152c0 14.4-11.8 26.2-26.3 26.2h-152C11.8 204.5 0 192.7 0 178.3v-152C0 11.8 11.8 0 26.3 0zM149 22.7c-5.1 0-9.2 4.2-9.2 9.2v22c0 5.1 4.1 9.2 9.2 9.2h23.1c5.1 0 9.2-4.1 9.2-9.2v-22c0-5.1-4.1-9.2-9.2-9.2H149zm32.4 63.8h-18c1.7 5.6 2.6 11.5 2.6 17.6 0 34-28.5 61.6-63.6 61.6s-63.6-27.6-63.6-61.6c0-6.1.9-12 2.6-17.6H22.7v86.4c0 4.5 3.7 8.1 8.1 8.1h142.4c4.5 0 8.1-3.6 8.1-8.1V86.5zM102.5 62c-22.7 0-41.1 17.8-41.1 39.8 0 22 18.4 39.8 41.1 39.8 22.7 0 41.1-17.8 41.1-39.8 0-22-18.4-39.8-41.1-39.8z"/></svg>