<svg xmlns="http://www.w3.org/2000/svg" viewBox="0 0 250 203.1775055"><path fill="#FFF" d="M78.623 203.178c94.344 0 145.936-78.161 145.936-145.936 0-2.221-.045-4.432-.147-6.631A104.358 104.358 0 0 0 250 24.054c-9.19 4.082-19.08 6.834-29.456 8.074 10.59-6.349 18.72-16.396 22.554-28.373a102.788 102.788 0 0 1-32.568 12.45C201.17 6.235 187.841 0 173.09 0c-28.327 0-51.298 22.971-51.298 51.288 0 4.025.45 7.939 1.33 11.694C80.495 60.84 42.695 40.428 17.4 9.394a51.108 51.108 0 0 0-6.946 25.78c0 17.794 9.055 33.503 22.824 42.693a50.914 50.914 0 0 1-23.23-6.416c-.011.214-.011.429-.011.654 0 24.843 17.682 45.582 41.15 50.285a51.434 51.434 0 0 1-13.522 1.804 51.16 51.16 0 0 1-9.642-.925c6.53 20.377 25.464 35.207 47.916 35.624-17.558 13.758-39.672 21.956-63.703 21.956-4.14 0-8.221-.237-12.236-.71 22.7 14.547 49.653 23.039 78.623 23.039"/></svg>