<svg xmlns="http://www.w3.org/2000/svg" viewBox="0 0 566.9299927 170.0399933"><path fill="#FFF" d="M87.996 1.277c-46.25 0-83.744 37.492-83.744 83.742 0 46.253 37.494 83.744 83.744 83.744s83.743-37.49 83.743-83.744c0-46.25-37.492-83.742-83.743-83.742zM126.4 122.064a5.216 5.216 0 0 1-7.176 1.737c-19.666-12.02-44.418-14.734-73.568-8.075a5.217 5.217 0 0 1-6.249-3.925 5.213 5.213 0 0 1 3.926-6.249c31.9-7.293 59.263-4.154 81.336 9.334a5.22 5.22 0 0 1 1.731 7.178zm10.247-22.803c-1.893 3.073-5.911 4.036-8.98 2.15-22.505-13.834-56.822-17.841-83.447-9.76a6.539 6.539 0 0 1-8.148-4.349 6.538 6.538 0 0 1 4.353-8.143c30.416-9.23 68.226-4.759 94.074 11.126 3.07 1.89 4.035 5.91 2.148 8.976zm.884-23.744c-26.994-16.031-71.52-17.505-97.289-9.684-4.138 1.255-8.514-1.08-9.768-5.219a7.835 7.835 0 0 1 5.22-9.771c29.582-8.98 78.756-7.245 109.833 11.202a7.832 7.832 0 0 1 2.736 10.733c-2.208 3.722-7.019 4.949-10.732 2.739z"/><g fill="#FFF"><path d="M232.089 78.586c-14.459-3.448-17.034-5.868-17.034-10.952 0-4.805 4.524-8.037 11.25-8.037 6.52 0 12.984 2.455 19.763 7.51a.946.946 0 0 0 .715.173.933.933 0 0 0 .625-.386l7.06-9.952a.949.949 0 0 0-.18-1.288c-8.067-6.473-17.151-9.62-27.77-9.62-15.611 0-26.516 9.369-26.516 22.774 0 14.375 9.407 19.465 25.663 23.394 13.836 3.187 16.171 5.856 16.171 10.63 0 5.29-4.722 8.577-12.32 8.577-8.44 0-15.325-2.843-23.026-9.512a.994.994 0 0 0-.695-.226.942.942 0 0 0-.65.334l-7.915 9.42a.94.94 0 0 0 .093 1.314c8.96 8 19.98 12.225 31.872 12.225 16.823 0 27.694-9.193 27.694-23.42 0-12.024-7.184-18.674-24.8-22.958zM294.95 64.326c-7.292 0-13.273 2.872-18.205 8.757v-6.624a.949.949 0 0 0-.947-.949h-12.946a.948.948 0 0 0-.946.949v73.602c0 .523.423.949.946.949h12.946a.948.948 0 0 0 .947-.949V116.83c4.933 5.536 10.915 8.24 18.205 8.24 13.55 0 27.265-10.43 27.265-30.368 0-19.942-13.716-30.375-27.265-30.375zm12.212 30.375c0 10.153-6.254 17.238-15.209 17.238-8.853 0-15.531-7.407-15.531-17.238 0-9.83 6.678-17.238 15.531-17.238 8.81 0 15.21 7.248 15.21 17.238zM357.373 64.326c-17.45 0-31.119 13.436-31.119 30.592 0 16.969 13.576 30.264 30.905 30.264 17.511 0 31.223-13.391 31.223-30.48 0-17.034-13.618-30.376-31.009-30.376zm0 47.72c-9.281 0-16.278-7.458-16.278-17.345 0-9.928 6.755-17.134 16.064-17.134 9.34 0 16.385 7.457 16.385 17.35 0 9.928-6.8 17.128-16.17 17.128zM425.644 65.51h-14.247V50.944a.947.947 0 0 0-.945-.948h-12.945a.95.95 0 0 0-.95.948V65.51h-6.225a.946.946 0 0 0-.943.949v11.127c0 .522.421.948.943.948h6.225v28.792c0 11.635 5.79 17.534 17.212 17.534 4.644 0 8.497-.959 12.128-3.018a.944.944 0 0 0 .479-.821v-10.596a.95.95 0 0 0-1.372-.85c-2.494 1.255-4.905 1.834-7.6 1.834-4.153 0-6.007-1.885-6.007-6.112V78.534h14.247a.947.947 0 0 0 .944-.948V66.459a.947.947 0 0 0-.944-.949zM475.281 65.567v-1.79c0-5.262 2.018-7.61 6.544-7.61 2.699 0 4.867.537 7.295 1.347a.947.947 0 0 0 1.245-.902v-10.91a.947.947 0 0 0-.67-.909c-2.564-.763-5.846-1.546-10.76-1.546-11.959 0-18.279 6.734-18.279 19.467v2.74h-6.22a.952.952 0 0 0-.95.948v11.184c0 .522.428.948.95.948h6.22v44.41c0 .523.422.948.944.948h12.946a.95.95 0 0 0 .95-.948v-44.41h12.087l18.517 44.398c-2.102 4.665-4.169 5.593-6.991 5.593-2.281 0-4.683-.68-7.139-2.025a.972.972 0 0 0-.754-.07.956.956 0 0 0-.56.51l-4.388 9.628a.94.94 0 0 0 .407 1.225c4.581 2.48 8.717 3.54 13.827 3.54 9.56 0 14.844-4.454 19.503-16.434l22.46-58.04a.947.947 0 0 0-.878-1.292h-13.478a.95.95 0 0 0-.897.635l-13.807 39.438-15.123-39.464a.945.945 0 0 0-.884-.61H475.28zM446.505 65.51h-12.947a.95.95 0 0 0-.948.949v56.485a.95.95 0 0 0 .948.948h12.947a.95.95 0 0 0 .948-.948V66.459a.95.95 0 0 0-.948-.949zM440.097 39.791c-5.128 0-9.29 4.153-9.29 9.282 0 5.131 4.162 9.288 9.29 9.288 5.127 0 9.285-4.157 9.285-9.288 0-5.13-4.158-9.282-9.285-9.282z"/></g><path fill="#FFF" d="M553.519 83.67c-5.124 0-9.11-4.114-9.11-9.111 0-4.998 4.038-9.16 9.158-9.16a9.074 9.074 0 0 1 9.11 9.108c0 4.997-4.035 9.164-9.158 9.164zm.048-17.364c-4.667 0-8.199 3.71-8.199 8.253 0 4.54 3.507 8.2 8.151 8.2 4.666 0 8.2-3.707 8.2-8.252 0-4.54-3.508-8.201-8.152-8.201zm2.02 9.138l2.577 3.608h-2.173l-2.32-3.31h-1.994v3.31h-1.82v-9.564h4.266c2.221 0 3.683 1.137 3.683 3.051 0 1.568-.906 2.526-2.22 2.905zm-1.538-4.315h-2.372v3.025h2.372c1.184 0 1.891-.58 1.891-1.514 0-.984-.707-1.511-1.89-1.511z"/></svg>