<svg xmlns="http://www.w3.org/2000/svg" viewBox="0 0 182.330307 42.8932648"><g fill="#FFF"><g fill-rule="evenodd" clip-rule="evenodd"><path d="M36.869 31.468c-1.007 2.234-1.49 3.23-2.787 5.203-1.81 2.756-4.361 6.186-7.523 6.216-2.81.026-3.53-1.83-7.344-1.808-3.812.021-4.608 1.84-7.418 1.814-3.16-.029-5.58-3.127-7.39-5.881-5.062-7.705-5.59-16.746-2.469-21.552 2.22-3.416 5.719-5.415 9.01-5.415 3.351 0 5.458 1.837 8.228 1.837 2.688 0 4.325-1.84 8.2-1.84 2.927 0 6.03 1.595 8.241 4.35-7.244 3.97-6.067 14.311 1.252 17.076z"/><path d="M24.436 6.964C25.844 5.157 26.913 2.607 26.525 0c-2.3.159-4.989 1.622-6.56 3.528-1.424 1.73-2.601 4.297-2.143 6.793 2.51.077 5.107-1.422 6.614-3.357z"/></g><path d="M55.13 12.362c0 2.016-1.536 3.648-3.936 3.648-2.304 0-3.84-1.632-3.792-3.648-.048-2.113 1.488-3.697 3.84-3.697s3.84 1.584 3.888 3.697zm-7.536 30.003V18.89h7.296v23.474h-7.296zM67.225 16.155h-8.688V10.01h24.866v6.145H74.57v26.21h-7.345v-26.21zM106.587 34.828c0 3.072.096 5.569.192 7.537h-6.336l-.336-3.313h-.145c-.912 1.44-3.12 3.84-7.345 3.84-4.752 0-8.256-2.976-8.256-10.225V18.891h7.344v12.625c0 3.408 1.105 5.472 3.649 5.472 2.016 0 3.169-1.392 3.648-2.544.193-.432.24-1.008.24-1.584V18.89h7.345v15.938zM112.44 26.38c0-2.93-.095-5.426-.19-7.49h6.335l.336 3.217h.145c.959-1.488 3.36-3.744 7.248-3.744 4.8 0 8.4 3.168 8.4 10.08v13.922h-7.296v-13.01c0-3.024-1.055-5.088-3.696-5.088-2.017 0-3.217 1.393-3.697 2.736-.192.48-.287 1.153-.287 1.825v13.537h-7.297V26.379zM146.185 32.955c.24 3.025 3.217 4.465 6.625 4.465 2.496 0 4.512-.336 6.48-.96l.96 4.945c-2.4.96-5.328 1.488-8.497 1.488-7.969 0-12.53-4.656-12.53-12.001 0-5.953 3.698-12.53 11.858-12.53 7.585 0 10.465 5.905 10.465 11.714 0 1.248-.143 2.352-.24 2.88h-15.121zm8.594-4.992c0-1.776-.769-4.752-4.13-4.752-3.072 0-4.32 2.784-4.512 4.752h8.642zM165.865 35.98c1.344.816 4.128 1.776 6.289 1.776 2.208 0 3.12-.768 3.12-1.968s-.72-1.776-3.456-2.688c-4.849-1.632-6.721-4.272-6.673-7.009 0-4.416 3.744-7.728 9.553-7.728 2.736 0 5.184.624 6.625 1.343l-1.297 5.041c-1.056-.576-3.073-1.344-5.088-1.344-1.777 0-2.784.72-2.784 1.92 0 1.104.912 1.68 3.792 2.688 4.464 1.536 6.337 3.793 6.384 7.25 0 4.367-3.456 7.632-10.176 7.632-3.073 0-5.809-.72-7.585-1.68l1.296-5.233z"/></g></svg>