<svg xmlns="http://www.w3.org/2000/svg" viewBox="0 30.4665813 108.0906601 9.9164228"><path fill="#FFF" d="M.259 36.397c-.048 0-.086.037-.092.09L0 37.755l.167 1.246c.006.053.044.09.092.09.046 0 .083-.037.09-.089l.199-1.247-.198-1.269c-.007-.052-.046-.089-.091-.089zm.939-.693c-.008-.054-.047-.092-.095-.092-.049 0-.089.04-.095.092l-.225 2.051.225 2.005c.006.054.046.093.095.093.047 0 .086-.038.094-.092l.256-2.006-.255-2.05zm3.537-1.891a.176.176 0 0 0-.173.171l-.179 3.773.179 2.438c.005.095.08.17.173.17a.177.177 0 0 0 .173-.17l.202-2.438-.202-3.773a.177.177 0 0 0-.173-.171zm-1.831 1.311c-.07 0-.128.057-.134.132l-.201 2.5.2 2.418a.137.137 0 0 0 .135.132c.07 0 .128-.057.134-.132l.229-2.418-.23-2.5c-.005-.075-.063-.132-.133-.132zm3.691 5.241a.214.214 0 0 0 .212-.21l.175-2.397-.175-5.023a.214.214 0 0 0-.212-.21.213.213 0 0 0-.212.21l-.155 5.023.155 2.398c.004.117.097.21.212.21zm3.809.011c.157 0 .286-.129.29-.288v.002-.002l.122-2.329-.123-5.8a.293.293 0 0 0-.29-.29.293.293 0 0 0-.29.29l-.108 5.798.109 2.332a.292.292 0 0 0 .29.287zm-1.92-.009c.138 0 .248-.11.252-.25v.002l.148-2.36-.149-5.06a.252.252 0 0 0-.25-.25.251.251 0 0 0-.251.25L8.1 37.76l.133 2.36a.251.251 0 0 0 .25.248zm-4.668-.022a.157.157 0 0 0 .153-.15l.216-2.44-.216-2.319a.156.156 0 0 0-.153-.15.155.155 0 0 0-.154.15l-.19 2.32.19 2.438a.156.156 0 0 0 .154.151zM2 40.212c.059 0 .107-.047.114-.112l.242-2.345-.242-2.433c-.007-.065-.055-.112-.114-.112-.06 0-.109.047-.115.112l-.213 2.433.213 2.344c.006.065.054.113.115.113zm7.44-7.597a.27.27 0 0 0-.27.27l-.12 4.874.12 2.346a.27.27 0 0 0 .54-.002v.002l.136-2.346-.135-4.875a.27.27 0 0 0-.27-.269zM5.662 40.37a.196.196 0 0 0 .193-.19l.188-2.423-.188-4.635a.196.196 0 0 0-.193-.19.195.195 0 0 0-.192.19l-.167 4.635.167 2.423c.004.106.089.19.192.19zm2.106-.229l.162-2.383-.162-5.192a.233.233 0 0 0-.23-.23c-.127 0-.229.1-.232.23l-.144 5.192.144 2.383a.232.232 0 0 0 .231.229c.126 0 .227-.101.231-.23v.001zm12.258-5.376c-.385 0-.752.078-1.086.218a4.956 4.956 0 0 0-6.732-4.18c-.212.081-.268.166-.27.33v8.913a.34.34 0 0 0 .303.332l7.785.005a2.809 2.809 0 0 0 0-5.618zm-8.662-3.64a.312.312 0 0 0-.31.308l-.127 6.327.127 2.296c.002.168.14.306.31.306a.312.312 0 0 0 .309-.308v.003l.137-2.297-.137-6.327a.312.312 0 0 0-.31-.308zm17.54 3.529c-1.353-.318-1.72-.488-1.72-1.024 0-.378.306-.769 1.22-.769.78 0 1.39.317 1.939.878l1.23-1.194c-.804-.841-1.78-1.341-3.107-1.341-1.684 0-3.05.951-3.05 2.5 0 1.682 1.099 2.182 2.67 2.547 1.61.365 1.903.61 1.903 1.159 0 .646-.477.927-1.487.927-.817 0-1.585-.28-2.183-.977l-1.231 1.098c.646.951 1.89 1.548 3.316 1.548 2.33 0 3.354-1.097 3.354-2.718 0-1.854-1.5-2.317-2.854-2.634zm7.854-3.45c-2.328 0-3.705 1.804-3.705 4.401s1.377 4.4 3.705 4.4c2.328 0 3.707-1.803 3.707-4.4s-1.38-4.401-3.707-4.401zm0 7.108c-1.377 0-1.951-1.183-1.951-2.706 0-1.524.574-2.707 1.95-2.707 1.38 0 1.952 1.183 1.952 2.707 0 1.523-.572 2.706-1.951 2.706zm10.596-2.182c0 1.365-.672 2.207-1.756 2.207-1.085 0-1.743-.866-1.743-2.231v-4.769h-1.708v4.793c0 2.486 1.39 3.876 3.45 3.876 2.17 0 3.464-1.427 3.464-3.9v-4.769h-1.707v4.793zm9.07-1.183c0 .476.024 1.548.024 1.865-.11-.22-.39-.646-.597-.964l-3.025-4.512h-1.633v8.536h1.683v-3.756c0-.476-.024-1.548-.024-1.865.109.219.39.646.597.964l3.134 4.657h1.524v-8.536h-1.683v3.611zm6.547-3.61H60.3v8.536h2.547c2.195 0 4.366-1.269 4.366-4.268 0-3.122-1.805-4.268-4.243-4.268zm-.123 6.878h-.84v-5.219h.902c1.805 0 2.549.865 2.549 2.609 0 1.561-.818 2.61-2.611 2.61zm9.645-5.317c.768 0 1.256.342 1.56.927l1.586-.731c-.537-1.109-1.513-1.89-3.122-1.89-2.23 0-3.791 1.804-3.791 4.401 0 2.694 1.499 4.4 3.73 4.4 1.549 0 2.573-.719 3.158-1.926l-1.438-.854c-.451.757-.903 1.086-1.671 1.086-1.28 0-2.024-1.171-2.024-2.706-.001-1.584.733-2.707 2.012-2.707zm6.33-1.561h-1.706v8.536h5.13v-1.684h-3.423v-6.852zm7.92-.133c-2.33 0-3.706 1.804-3.706 4.401s1.377 4.4 3.707 4.4c2.328 0 3.706-1.803 3.706-4.4s-1.378-4.401-3.706-4.401zm0 7.108c-1.378 0-1.95-1.183-1.95-2.706 0-1.524.572-2.707 1.95-2.707 1.377 0 1.95 1.183 1.95 2.707 0 1.523-.573 2.706-1.95 2.706zm10.595-2.182c0 1.365-.67 2.207-1.754 2.207-1.087 0-1.744-.866-1.744-2.231v-4.769h-1.707v4.793c0 2.486 1.39 3.876 3.45 3.876 2.17 0 3.463-1.427 3.463-3.9v-4.769h-1.708v4.793zm6.51-4.793h-2.668v8.536h2.547c2.196 0 4.365-1.269 4.365-4.268 0-3.122-1.804-4.268-4.243-4.268zm-.121 6.878h-.841v-5.219h.903c1.803 0 2.547.865 2.547 2.609 0 1.561-.817 2.61-2.61 2.61z"/></svg>