<?xml version="1.0" encoding="utf-8"?>
<!-- Generator: Adobe Illustrator 17.1.0, SVG Export Plug-In . SVG Version: 6.00 Build 0)  -->
<!DOCTYPE svg PUBLIC "-//W3C//DTD SVG 1.1//EN" "http://www.w3.org/Graphics/SVG/1.1/DTD/svg11.dtd">
<svg version="1.1" id="White" xmlns="http://www.w3.org/2000/svg" xmlns:xlink="http://www.w3.org/1999/xlink" x="0px" y="0px"
	 viewBox="0 0 266.8945923 266.8945923" enable-background="new 0 0 266.8945923 266.8945923" xml:space="preserve">
<path id="White_2_" fill="#FFFFFF" d="M252.164093,0H14.7304993C6.5938001,0,0,6.5938001,0,14.7305002V252.164093
	c0,8.1347961,6.5938001,14.7304993,14.7304993,14.7304993h127.8262024V163.539093h-34.7813034v-40.2797928h34.7813034v-29.705101
	c0-34.472599,21.0546875-53.2435989,51.8066101-53.2435989c14.730484,0,27.3905792,1.0966988,31.0800781,1.5868988v36.0259018
	l-21.3280792,0.009697c-16.7246094,0-19.9629211,7.9473038-19.9629211,19.6094055v25.7167969h39.8867035l-5.1934052,40.2797928
	h-34.6932983v103.3554993h68.0117035c8.1347961,0,14.7304993-6.5957031,14.7304993-14.7304993V14.7305002
	C266.8945923,6.5938001,260.2988892,0,252.164093,0z"/>
</svg>
