<?xml version="1.0" encoding="utf-8"?>
<!-- Generator: Adobe Illustrator 17.1.0, SVG Export Plug-In . SVG Version: 6.00 Build 0)  -->
<!DOCTYPE svg PUBLIC "-//W3C//DTD SVG 1.1//EN" "http://www.w3.org/Graphics/SVG/1.1/DTD/svg11.dtd">
<svg version="1.1" xmlns="http://www.w3.org/2000/svg" xmlns:xlink="http://www.w3.org/1999/xlink" x="0px" y="0px"
	 viewBox="0 0 352.536438 330.8988953" enable-background="new 0 0 352.536438 330.8988953" xml:space="preserve">
<g id="Layer_2">
</g>
<g id="Layer_1">
	<g>
		<g>
			<g>
				<path fill="#FFFFFF" d="M178.4929657,330.8988953c-0.9088745,0-1.8014069-0.026001-2.693924-0.0683289h-0.0019226
					c-0.5688171,0.0442505-1.1639404,0.0683289-1.7588959,0.0683289c-20.8850555,0-34.2905121-9.4752502-47.252594-18.6402893
					c-8.9505539-6.324646-17.3964539-12.2947693-27.3484497-13.9522705
					c-4.8559265-0.8036804-9.6897202-1.2120667-14.3606949-1.2120667c-8.4147873,0-15.0536728,1.2989807-19.9002991,2.2468567
					c-2.945282,0.5765076-5.4860153,1.0716858-7.4168434,1.0716858c-2.017662,0-4.2037277-0.4361267-5.1535149-3.6825256
					c-0.8257904-2.8122864-1.4226761-5.5358887-1.9972649-8.1707764c-1.4802628-6.781189-2.5314293-10.9516907-5.3734131-11.3876648
					c-33.1244888-5.1164551-42.6051941-12.0934753-44.7190781-17.0435791
					c-0.2993249-0.7078857-0.4693595-1.4173584-0.5101036-2.1193237c-0.1071538-1.9014893,1.2399687-3.5809937,3.1191711-3.8876953
					c50.9202042-8.3852692,73.7545624-60.4288177,74.7025833-62.6387939
					c0.0258255-0.0609589,0.0535736-0.1201477,0.0813293-0.1811066c3.1170807-6.3156586,3.726799-11.7979889,1.8200378-16.2917023
					c-3.4942398-8.2352905-14.8910446-11.8551025-22.4354439-14.2479401
					c-1.8458099-0.5838928-3.5957489-1.1363373-4.975914-1.6814117c-15.053669-5.9515381-16.306469-12.060257-15.7151985-15.1736603
					c1.0088158-5.3049164,8.098774-9.0021973,13.8323059-9.0021973c1.5723381,0,2.956356,0.2787933,4.1204491,0.8220978
					c6.7720261,3.1725922,12.8751717,4.7802124,18.1412392,4.7802124c7.2763824,0,10.4526367-3.0580597,10.8408279-3.4589233
					c-0.1849518-3.4460754-0.4139938-7.0456848-0.6486969-10.7596512
					c-1.5168381-24.0743256-3.3960419-53.9875641,4.2203827-71.062561
					c22.826973-51.1827965,71.2343597-55.1590385,85.5267181-55.1590385c0.3658905,0,6.2657776-0.0627203,6.2657776-0.0627203
					L179.7476959,0c14.3255615,0,62.8383331,3.9837806,85.6784821,55.1941681
					c7.6181641,17.0842972,5.7333679,47.0235291,4.2145996,71.0792465l-0.0628967,1.0458679
					c-0.2104492,3.3499985-0.4138489,6.6058426-0.5838928,9.7227707c0.3641357,0.3715057,3.2853699,3.1838074,9.881897,3.4367828
					h0.0073853c5.01297-0.1920166,10.774292-1.7901764,17.0971375-4.7523041
					c1.853363-0.8647766,3.9117432-1.0476379,5.3122864-1.0476379c2.1397095,0,4.3091125,0.4140167,6.1105042,1.165863
					l0.1090698,0.0444336c5.114502,1.8126221,8.4646912,5.3973083,8.5365295,9.1427155
					c0.0665894,3.5272522-2.6257324,8.8304138-15.8351746,14.0483856c-1.3691101,0.5376892-3.118866,1.0938263-4.9721985,1.6814117
					c-7.5518188,2.3965302-18.9450684,6.0126495-22.4371948,14.24617
					c-1.9087219,4.4919586-1.2972412,9.9704437,1.8181152,16.2896271c0.02771,0.0611115,0.0591431,0.1201477,0.0832214,0.1849518
					c0.9476929,2.2080383,23.7618408,54.2368469,74.7044983,62.6314087
					c1.8809509,0.3102417,3.2242432,1.9879761,3.1207581,3.8912354c-0.0424805,0.7133484-0.216217,1.4319763-0.5209961,2.1305542
					c-2.1010437,4.9147949-11.5743713,11.8826904-44.710083,17.0028076
					c-2.7067566,0.415802-3.7563477,3.9432068-5.3714905,11.3397217c-0.5874329,2.6921387-1.1825562,5.3363342-2.0011292,8.117218
					c-0.7056274,2.4130249-2.2096558,3.5421753-4.7394714,3.5421753h-0.4119263
					c-1.7555237,0-4.2516785-0.3140869-7.4151001-0.9350281c-5.6096802-1.0975342-11.899353-2.1082764-19.9020691-2.1082764
					c-4.6730652,0-9.5084534,0.4083862-14.368042,1.2120667c-9.9409637,1.6575012-18.3813782,7.6164246-27.3152771,13.9320679
					C212.787323,321.423645,199.3837891,330.8988953,178.4929657,330.8988953z"/>
			</g>
		</g>
	</g>
</g>
</svg>
