<?xml version="1.0" encoding="utf-8"?>
<!-- Generator: Adobe Illustrator 17.1.0, SVG Export Plug-In . SVG Version: 6.00 Build 0)  -->
<!DOCTYPE svg PUBLIC "-//W3C//DTD SVG 1.1//EN" "http://www.w3.org/Graphics/SVG/1.1/DTD/svg11.dtd">
<svg version="1.1" xmlns="http://www.w3.org/2000/svg" xmlns:xlink="http://www.w3.org/1999/xlink" x="0px" y="0px"
	 viewBox="0 0 250 203.1775055" enable-background="new 0 0 250 203.1775055" xml:space="preserve">
<g id="Dark_Blue">
</g>
<g id="Logo__x2014__FIXED">
	<g>
		<path fill="#FFFFFF" d="M78.6233063,203.1775055c94.3434296,0,145.9357147-78.1605988,145.9357147-145.9355316
			c0-2.2211227-0.0450897-4.4319229-0.1466064-6.6310234C234.4264069,43.3714714,243.1322937,34.3382988,250,24.0538101
			c-9.1907959,4.0822716-19.080719,6.8340721-29.4555359,8.074379
			c10.5890503-6.3488255,18.7197876-16.3965416,22.5540161-28.3728561
			c-9.9125519,5.8752775-20.8850861,10.1488953-32.5680084,12.4498625C201.1705322,6.2359438,187.8411102,0,173.0908051,0
			c-28.3278656,0-51.2991562,22.9711246-51.2991562,51.2875404c0,4.0258331,0.451088,7.9394722,1.3307266,11.6948013
			C80.4952087,60.8396835,42.694706,40.4283257,17.4004173,9.393837
			c-4.4093838,7.5781174-6.9466944,16.3855267-6.9466944,25.7793617c0,17.7951546,9.0554552,33.5040932,22.824688,42.6941948
			c-8.412672-0.2588043-16.3178158-2.5707855-23.2306099-6.4162827c-0.0112705,0.2140579-0.0112705,0.4288101-0.0112705,0.6538849
			c0,24.843277,17.6823597,45.5815811,41.1497421,50.2846909c-4.3077736,1.1721649-8.8411369,1.8040237-13.5211067,1.8040237
			c-3.3041534,0-6.5181446-0.3269424-9.64188-0.9250717c6.5294151,20.3776321,25.4635239,35.2069321,47.9160194,35.6247177
			c-17.5582962,13.7576294-39.672493,21.9559021-63.7037659,21.9559021c-4.1387119,0-8.2209835-0.2367859-12.2355442-0.7103271
			C22.7005386,194.6860199,49.652668,203.1775055,78.6233063,203.1775055"/>
	</g>
</g>
</svg>
