<?xml version="1.0" encoding="utf-8"?>
<!-- Generator: Adobe Illustrator 19.2.1, SVG Export Plug-In . SVG Version: 6.00 Build 0)  -->
<svg version="1.1" id="Layer_1" xmlns="http://www.w3.org/2000/svg" xmlns:xlink="http://www.w3.org/1999/xlink" x="0px" y="0px"
	 viewBox="0 0 425.9745483 187.2527008" style="enable-background:new 0 0 425.9745483 187.2527008;" xml:space="preserve">
<style type="text/css">
	.st0{fill:#FFFFFF;}
</style>
<g>
	<path class="st0" d="M20.5774555,177.2532196c0.8794479,0,1.6224709-0.7216034,1.750946-1.7393951l4.7774029-37.8722839
		l-4.7627869-38.7315826c-0.1430912-1.0177994-0.8861141-1.7471008-1.7655621-1.7471008
		c-0.9016285,0-1.66786,0.7439194-1.7878723,1.7471008l-4.1773434,38.7315826l4.1773434,37.8568878
		C18.9095955,176.5169983,19.675827,177.2532196,20.5774555,177.2532196z"/>
	<path class="st0" d="M4.8235621,162.8510132c0.8639331,0,1.5625925-0.6723785,1.6901703-1.6755524l3.7035775-23.5339203
		l-3.7035775-23.973175c-0.1275778-0.9724045-0.8262372-1.6747818-1.6901703-1.6747818
		c-0.901629,0-1.6001608,0.7023773-1.7278659,1.6901703L0,137.6415405l3.0956962,23.5269928
		C3.2234013,162.1632385,3.9219332,162.8510132,4.8235621,162.8510132z"/>
	<path class="st0" d="M39.4193497,91.7015381c-0.1123161-1.2324295-1.0139465-2.1302109-2.1332893-2.1302109
		c-1.1116524,0-2.013279,0.8977814-2.1186752,2.1302109l-3.9896317,45.9400024l3.9896317,44.2660065
		c0.1053963,1.2239685,1.0070229,2.1109772,2.1186752,2.1109772c1.1193428,0,2.0209732-0.8870087,2.1332893-2.1109772
		l4.5150719-44.2660065L39.4193497,91.7015381z"/>
	<path class="st0" d="M54.1746826,185.8025513c1.3070526,0,2.3663902-1.0778046,2.4940987-2.4864044l4.2673492-45.6592102
		l-4.2673492-47.2255249c-0.1277084-1.4162979-1.1870461-2.4825592-2.4940987-2.4825592
		c-1.3300056,0-2.4040871,1.0662613-2.4940987,2.4902496l-3.7719154,47.2178345l3.7719154,45.6592102
		C51.7705956,184.7247467,52.844677,185.8025513,54.1746826,185.8025513z"/>
	<path class="st0" d="M71.1763916,186.5426178c1.5247726,0,2.7495117-1.2208862,2.8772125-2.8549042l-0.0153809,0.0115509
		l4.0196304-46.0423279l-4.0196304-43.814415c-0.1123199-1.6078568-1.337059-2.8472061-2.8618317-2.8472061
		c-1.5478439,0-2.7648926,1.2393494-2.8549042,2.8587494l-3.5534286,43.8028717l3.5534286,46.030777
		C68.411499,185.3217316,69.6285477,186.5426178,71.1763916,186.5426178z"/>
	<path class="st0" d="M95.3218994,137.6684723l-3.7711487-71.2402496c-0.1053925-1.807106-1.510025-3.2457085-3.2380142-3.2457085
		c-1.7132492,0-3.1180115,1.4386024-3.2226334,3.2457085l-3.3357239,71.2402496l3.3357239,46.0307922
		c0.1046219,1.8140259,1.5093842,3.2341614,3.2226334,3.2341614c1.7279892,0,3.1326218-1.4201355,3.2380142-3.2341614v0.0107727
		L95.3218994,137.6684723z"/>
	<path class="st0" d="M105.6221695,187.0080566c1.9009552,0,3.4780426-1.5770874,3.5688171-3.5911255v0.0299988
		l3.5234299-45.7676849L109.1909866,50.13274c-0.0907745-2.0132828-1.6678619-3.5903625-3.5688171-3.5903625
		c-1.9455795,0-3.5088196,1.5770798-3.6134415,3.5903625l-3.102623,87.5465088l3.1172409,45.753067
		C102.1133499,185.4309692,103.67659,187.0080566,105.6221695,187.0080566z"/>
	<path class="st0" d="M123.0293045,38.8677597c-2.1409836,0-3.8688507,1.7578697-3.9596329,3.9742432l-2.884903,94.852623
		l2.884903,45.2714844c0.0907822,2.2056122,1.8186493,3.9519348,3.9596329,3.9519348
		c2.1332932,0,3.8766708-1.73172,3.9519348-3.9588623v0.0223083l3.2749405-45.2868652l-3.2749405-94.852623
		C126.9059753,40.6110115,125.1625977,38.8677597,123.0293045,38.8677597z"/>
	<path class="st0" d="M140.5864563,187.0080566c2.3518982,0,4.2219696-1.896347,4.3127441-4.3381348v0.0261536l3.0272217-45.0014496
		l-3.0272217-98.0383301c-0.0907745-2.4340897-1.9608459-4.338131-4.3127441-4.338131
		c-2.366394,0-4.2673492,1.9040413-4.3042755,4.338131l-2.7202759,98.0383301l2.7202759,45.0014496
		C136.3191071,185.1117096,138.2200623,187.0080566,140.5864563,187.0080566z"/>
	<path class="st0" d="M158.2866974,186.9634399c2.5394897,0,4.5981598-2.0771332,4.6727753-4.7104797v0.0407715
		l2.7872009-44.5914154l-2.7872009-95.5442276c-0.0746155-2.6333427-2.1332855-4.7027817-4.6727753-4.7027817
		c-2.5541077,0-4.6127777,2.0694389-4.6881561,4.7027817l-2.4487152,95.5442276l2.4640961,44.5691071
		C153.6739197,184.8863068,155.7325897,186.9634399,158.2866974,186.9634399z"/>
	<path class="st0" d="M183.6800232,137.7023163l-2.5240936-92.0615692
		c-0.0607758-2.8402863-2.2840881-5.0712776-5.0412903-5.0712776c-2.7648926,0-4.9888306,2.2309914-5.0489655,5.0897408
		l-2.2610016,92.0431061l2.2610016,44.2990875c0.0601349,2.8171997,2.2840729,5.0481873,5.0489655,5.0481873
		c2.7572021,0,4.9805145-2.2309875,5.0412903-5.0897369v0.0415497L183.6800232,137.7023163z"/>
	<path class="st0" d="M194.0772247,187.1326752c2.9302979,0,5.3566895-2.4379272,5.4020844-5.4359283v0.0223083
		l2.2910004-43.9944305L199.4793091,28.173605c-0.0453949-3.0095329-2.4717865-5.4436245-5.4020844-5.4436245
		c-2.9295349,0-5.348999,2.445631-5.4090118,5.4582424l-2.0355835,109.4910202l2.0355835,44.0398102
		C188.7282257,184.6947479,191.1476898,187.1326752,194.0772247,187.1326752z"/>
	<path class="st0" d="M211.9805603,12.4266357c-3.1626282,0-5.7321167,2.6256485-5.785202,5.8259716l-2.3662567,119.4866333
		l2.3816528,43.3451385c0.0376892,3.1595459,2.6071777,5.7775116,5.7698059,5.7775116
		c3.1180115,0,5.7321167-2.6179657,5.7474976-5.8298187v0.0523071l2.5841064-43.3451385l-2.5841064-119.4866333
		C217.712677,15.0407448,215.0985718,12.4266357,211.9805603,12.4266357z"/>
	<path class="st0" d="M228.3506775,187.1734619c0.1277008,0.0115356,144.2983704,0.0792389,145.22229,0.0792389
		c28.9467773,0,52.4015808-23.7439423,52.4015808-53.043808c0-29.2852554-23.4548035-53.0330276-52.4015808-53.0330276
		c-7.182251,0-14.0267944,1.468605-20.2697144,4.1281052C349.1559143,37.4930038,309.5488281,0,261.2339783,0
		c-11.8096466,0-23.3269653,2.3594682-33.499527,6.3452539c-3.9588623,1.5470791-5.0181885,3.1433935-5.0482025,6.2352428
		v168.3161774C222.7316437,184.1500702,225.2103577,186.8503418,228.3506775,187.1734619z"/>
</g>
</svg>
