<?xml version="1.0" encoding="utf-8"?>
<!-- Generator: Adobe Illustrator 19.2.1, SVG Export Plug-In . SVG Version: 6.00 Build 0)  -->
<svg version="1.1" id="Layer_1" xmlns="http://www.w3.org/2000/svg" xmlns:xlink="http://www.w3.org/1999/xlink" x="0px" y="0px"
	 viewBox="0 0 227.2116241 227.1215057" style="enable-background:new 0 0 227.2116241 227.1215057;" xml:space="preserve">
<style type="text/css">
	.st0{fill:#FFFFFF;}
</style>
<g>
	<path class="st0" d="M227.2116241,113.5642929C227.2116241,50.8501244,176.345459,0,113.603447,0
		C50.8595543,0,0,50.8501244,0,113.5642929c0,29.9685287,11.7073421,57.1462631,30.678381,77.4378891
		c7.5039196-8.8608551,16.5375233-16.0306244,26.8874645-21.2709656
		c12.1750679-6.1691895,25.2789879-9.2946014,38.9657936-9.2946014c21.7339783,0,42.5027847,8.1146698,58.4871597,22.8454742
		c8.0684052,7.4411621,14.5491028,16.2354736,19.3122711,26.1474304
		C206.078949,189.2875061,227.2116241,153.9309082,227.2116241,113.5642929z M167.401535,157.6599731
		c-1.4772797,2.1177521-3.8395233,3.2561646-6.2385712,3.2561646c-1.4843445,0-2.9890137-0.4379883-4.3048859-1.3460693
		c-17.7911072-12.3336639-38.6523972-18.8464355-60.3264389-18.8464355c-12.5465164,0-24.8112564,2.1592712-36.4747086,6.434433
		c-3.9244728,1.4381104-8.2803307-0.5786438-9.7160645-4.5031128c-1.4381218-3.9296722,0.5762672-8.2760925,4.5054588-9.7137299
		c13.33424-4.8811646,27.3575783-7.3656387,41.6853142-7.3656387c24.7805786,0,48.6214523,7.4529648,68.9569931,21.5569839
		C168.9222412,149.5108643,169.7774506,154.2282562,167.401535,157.6599731z M183.9206543,122.7479782
		c-1.6179199,2.5835953-4.3973846,4.0028229-7.233963,4.0028229c-1.5395813,0-3.1065369-0.4125061-4.5125427-1.2950974
		c-22.6562195-14.159256-48.8130875-21.6395874-75.6425095-21.6395874c-14.9153595,0-29.6117172,2.2928543-43.7157478,6.8120193
		c-4.4705505,1.4357452-9.2733688-1.0298538-10.7067566-5.5079498c-1.4451866-4.4847107,1.0256004-9.2757263,5.5103073-10.7185593
		c15.7701073-5.0562668,32.2358971-7.6186218,48.9121971-7.6186218c30.0237656,0,59.3055649,8.3770905,84.6742172,24.2255402
		C185.199707,113.5067062,186.4117432,118.7588501,183.9206543,122.7479782z M187.4741669,91.1525497
		c-27.4727325-16.1344681-58.9232635-24.661171-90.9425278-24.661171c-17.3054428,0-34.437191,2.4655991-50.9242249,7.3146744
		c-5.0147362,1.4815292-10.2782021-1.3876114-11.7554855-6.3999863c-1.4772797-5.0123749,1.3965759-10.2739525,6.4089508-11.757843
		c18.2290955-5.3583336,37.1496353-8.0773811,56.2707596-8.0773811c35.3839798,0,70.1529617,9.4210968,100.5410843,27.253727
		c4.5007477,2.6572266,6.0077667,8.4530792,3.3647003,12.956192c-1.7675476,3.0003433-4.9274139,4.6758575-8.1788483,4.6758575
		C190.6335602,92.4566193,188.9859009,92.0351486,187.4741669,91.1525497z"/>
	<path class="st0" d="M96.5316391,200.4969177c-7.3241119,0-14.3437958,1.6688995-20.85186,4.9689484
		c-4.8165054,2.4495544-9.1147842,5.6783295-12.7994919,9.6075287c15.2839661,7.644104,32.4714127,12.048111,50.7231598,12.048111
		c8.0684204,0,15.9362411-0.8708038,23.5274887-2.4608765c-2.4268951-4.4686737-5.528717-8.4672394-9.2828064-11.9239807
		C119.2846146,204.8409729,108.1625366,200.4969177,96.5316391,200.4969177z"/>
</g>
</svg>
