<?xml version="1.0" encoding="utf-8"?>
<!-- Generator: Adobe Illustrator 17.1.0, SVG Export Plug-In . SVG Version: 6.00 Build 0)  -->
<!DOCTYPE svg PUBLIC "-//W3C//DTD SVG 1.1//EN" "http://www.w3.org/Graphics/SVG/1.1/DTD/svg11.dtd">
<svg version="1.1" id="Ebene_1" xmlns="http://www.w3.org/2000/svg" xmlns:xlink="http://www.w3.org/1999/xlink" x="0px" y="0px"
	 viewBox="0 0 164.2955933 201.5331879" enable-background="new 0 0 164.2955933 201.5331879" xml:space="preserve">
<path fill-rule="evenodd" clip-rule="evenodd" fill="#999999" d="M90.6507416,17.5377998
	C103.8923492,0.0852241,122.3014526,0,122.3014526,0s2.7378082,16.4084797-10.4164886,32.215229
	c-14.0460129,16.878231-30.0115128,14.1161613-30.0115128,14.1161613S78.8756943,33.0574455,90.6507416,17.5377998z"/>
<path fill-rule="evenodd" clip-rule="evenodd" fill="#999999" d="M83.5575867,57.8257904
	c6.8125381,0,19.4550323-9.3640862,35.911644-9.3640862c28.3273697,0,39.4710007,20.1566124,39.4710007,20.1566124
	s-21.7954865,11.1434631-21.7954865,38.1826019c0,30.5029144,27.1508484,41.014801,27.1508484,41.014801
	s-18.9797516,53.4212952-44.6155701,53.4212952c-11.7750473,0-20.9286652-7.9350739-33.3351364-7.9350739
	c-12.6425323,0-25.1893082,8.2312469-33.360405,8.2312469C29.5746899,201.5331879,0,150.8581085,0,110.1242294
	c0-40.0772018,25.0331383-61.1009216,48.5130882-61.1009216C63.7769737,49.0233078,75.6222153,57.8257904,83.5575867,57.8257904z"/>
</svg>
