<?xml version="1.0" encoding="utf-8"?>
<!-- Generator: Adobe Illustrator 17.1.0, SVG Export Plug-In . SVG Version: 6.00 Build 0)  -->
<!DOCTYPE svg PUBLIC "-//W3C//DTD SVG 1.1//EN" "http://www.w3.org/Graphics/SVG/1.1/DTD/svg11.dtd">
<svg version="1.1" id="Layer_1" xmlns="http://www.w3.org/2000/svg" xmlns:xlink="http://www.w3.org/1999/xlink" x="0px" y="0px"
	 viewBox="0 0 566.9299927 170.0399933" enable-background="new 0 0 566.9299927 170.0399933" xml:space="preserve">
<g>
	<g>
		<g>
			<path fill="#FFFFFF" d="M87.9957428,1.2767333c-46.2494507,0-83.7433472,37.4926338-83.7433472,83.7420044
				c0,46.2535858,37.4938965,83.7445221,83.7433472,83.7445221c46.2510529,0,83.7432709-37.4909363,83.7432709-83.7445221
				C171.7390137,38.7693672,134.2467957,1.2767333,87.9957428,1.2767333z M126.4011765,122.0642014
				c-1.5044937,2.4671326-4.7181473,3.2403793-7.1765976,1.7367249
				c-19.6653137-12.019371-44.4171829-14.7335739-73.5671997-8.0749817
				c-2.8093185,0.6439819-5.6086884-1.1166077-6.2493782-3.9246597c-0.6434708-2.808815,1.1101189-5.6086044,3.9255066-6.2492905
				c31.8996353-7.2926254,59.2631683-4.1544495,81.3362503,9.3340073
				C127.1307449,116.3889008,127.9055939,119.6037292,126.4011765,122.0642014z M136.6484222,99.260704
				c-1.8935852,3.0731659-5.9116669,4.036644-8.9807892,2.1500778c-22.5046539-13.8335037-56.8219223-17.840889-83.446785-9.7590027
				c-3.4528732,1.043335-7.0996094-0.9033508-8.1482544-4.3495636c-1.0404663-3.4527969,0.9070663-7.0929489,4.3537025-8.1428604
				c30.415287-9.229454,68.2257385-4.7593002,94.0740509,11.1254578
				C137.5694733,92.174675,138.5354004,96.1948776,136.6484222,99.260704z M137.5323792,75.5167542
				C110.5382614,59.485775,66.012291,58.0118027,40.2430611,65.8331375c-4.13834,1.2553177-8.5143051-1.080864-9.7680244-5.2187805
				c-1.2541428-4.1403618,1.0795918-8.5134583,5.2207985-9.7713089
				c29.5811577-8.9795189,78.7555389-7.2448997,109.831665,11.2021103
				c3.7224579,2.2093582,4.9432983,7.0163803,2.7368011,10.7326813
				C146.0561218,76.4995422,141.2454681,77.726532,137.5323792,75.5167542z"/>
		</g>
	</g>
	<g>
		<g>
			<path fill="#FFFFFF" d="M232.0886841,78.5862045c-14.4585114-3.4483185-17.033493-5.8684845-17.033493-10.9525986
				c0-4.804493,4.5233459-8.0366096,11.2494049-8.0366096c6.5202332,0,12.9845428,2.455162,19.7633057,7.5091667
				c0.2050781,0.1527939,0.4620056,0.2140961,0.7148132,0.1742172c0.2527924-0.0378647,0.4767609-0.1766586,0.625-0.3862076
				l7.0603943-9.9520988c0.2899017-0.4096413,0.2108154-0.9745255-0.1802826-1.2878723
				c-8.0667114-6.4733391-17.1512909-9.6202049-27.7691345-9.6202049c-15.6121368,0-26.5165863,9.3685837-26.5165863,22.7739029
				c0,14.3753662,9.4065247,19.4647903,25.6626434,23.3940125c13.8359528,3.1868286,16.1713867,5.856514,16.1713867,10.6301422
				c0,5.2891846-4.7217865,8.5772934-12.3208313,8.5772934c-8.439682,0-15.3239288-2.8434677-23.0250244-9.5119324
				c-0.1910706-0.1646881-0.4528961-0.2404099-0.6949768-0.2264099c-0.2545013,0.0214157-0.4875641,0.1391373-0.6497192,0.334259
				l-7.9160309,9.4205246c-0.3318939,0.3911819-0.2899017,0.9750366,0.0938568,1.3134232
				c8.9602051,7.9992599,19.9798431,12.2244492,31.8716431,12.2244492c16.8234406,0,27.6940765-9.1924286,27.6940765-23.4194794
				C256.8891296,89.520256,249.7051849,82.8703461,232.0886841,78.5862045z"/>
			<path fill="#FFFFFF" d="M294.9500122,64.3261948c-7.2918701,0-13.2727661,2.8717957-18.2053528,8.7567291v-6.6239395
				c0-0.5225525-0.4240417-0.9486389-0.946167-0.9486389h-12.9465942c-0.5228882,0-0.946106,0.4260864-0.946106,0.9486389
				v73.6021881c0,0.5228882,0.4232178,0.9486389,0.946106,0.9486389h12.9465942c0.5221252,0,0.946167-0.4257507,0.946167-0.9486389
				v-23.2326126c4.9334412,5.5362549,10.9151001,8.240509,18.2053528,8.240509
				c13.5493469,0,27.2650452-10.4300461,27.2650452-30.367981
				C322.2150574,74.7586823,308.4993591,64.3261948,294.9500122,64.3261948z M307.1620789,94.701088
				c0,10.1526184-6.2542725,17.2377243-15.2087402,17.2377243c-8.8531189,0-15.5314636-7.407135-15.5314636-17.2377243
				c0-9.8297501,6.6783447-17.237648,15.5314636-17.237648C300.7637024,77.4634399,307.1620789,84.7112045,307.1620789,94.701088z"
				/>
			<path fill="#FFFFFF" d="M357.3731995,64.3261948c-17.4493713,0-31.1189575,13.4360886-31.1189575,30.5915146
				c0,16.9692459,13.5757141,30.264183,30.9048462,30.264183c17.5111084,0,31.2226868-13.3913193,31.2226868-30.4808044
				C388.3817749,77.6680069,374.7640686,64.3261948,357.3731995,64.3261948z M357.3731995,112.0450592
				c-9.2814026,0-16.2783813-7.4573898-16.2783813-17.3439713c0-9.9285812,6.7548828-17.1339264,16.06427-17.1339264
				c9.3406067,0,16.3854065,7.4569702,16.3854065,17.3505478
				C373.5444946,104.8446045,366.7434692,112.0450592,357.3731995,112.0450592z"/>
			<path fill="#FFFFFF" d="M425.6438904,65.5103455h-14.2468872V50.9438972c0-0.5224686-0.4224548-0.9482155-0.945343-0.9482155
				h-12.9449768c-0.5237427,0-0.9494934,0.4257469-0.9494934,0.9482155v14.5664482h-6.2254333
				c-0.5212708,0-0.9429016,0.4260864-0.9429016,0.9486389v11.1267242c0,0.5224686,0.4216309,0.9486389,0.9429016,0.9486389
				h6.2254333v28.7913895c0,11.6348572,5.7906494,17.5342102,17.2121887,17.5342102
				c4.6435852,0,8.496582-0.9585953,12.1280518-3.0180206c0.2948914-0.164772,0.4784546-0.4825821,0.4784546-0.8210602V110.425293
				c0-0.3269196-0.1704102-0.6357117-0.4496155-0.8069763c-0.2823792-0.1770782-0.6332703-0.1860962-0.9222412-0.0428314
				c-2.4942932,1.254982-4.905426,1.8338623-7.599823,1.8338623c-4.153595,0-6.0072021-1.8857269-6.0072021-6.1126022V78.5343475
				h14.2468872c0.5228882,0,0.9444885-0.4261703,0.9444885-0.9486389V66.4589844
				C426.5883789,65.9364319,426.1667786,65.5103455,425.6438904,65.5103455z"/>
			<path fill="#FFFFFF" d="M475.2810059,65.5667572v-1.7890053c0-5.2632141,2.0175476-7.6101036,6.5440979-7.6101036
				c2.6985168,0,4.8667297,0.5364647,7.295166,1.3463058c0.2989197,0.0939369,0.6109924,0.0469704,0.8539429-0.1317101
				c0.2495117-0.1791039,0.3911743-0.4660568,0.3911743-0.7699585v-10.910183c0-0.4166451-0.2684937-0.7864037-0.6695251-0.9086723
				c-2.5651245-0.7629585-5.8466492-1.5464897-10.7611084-1.5464897c-11.9584045,0-18.2786255,6.7343216-18.2786255,19.4669037
				v2.7400894h-6.2196045c-0.5221252,0-0.9503174,0.4256668-0.9503174,0.9482117v11.1835632
				c0,0.5224686,0.4281921,0.9486389,0.9503174,0.9486389h6.2196045v44.4093475
				c0,0.5228882,0.4216309,0.9486389,0.9437561,0.9486389h12.9465942c0.5228882,0,0.9486389-0.4257507,0.9486389-0.9486389
				V78.5343475h12.0877686l18.517334,44.3977966c-2.1022644,4.6650238-4.16922,5.5930023-6.991272,5.5930023
				c-2.2810364,0-4.6830444-0.6809998-7.1386414-2.0248566c-0.2313843-0.1268234-0.5047607-0.1482468-0.7542725-0.0708313
				c-0.2470703,0.0872726-0.4554443,0.2709274-0.5599976,0.5113373l-4.3882751,9.6271973
				c-0.209198,0.4545898-0.030426,0.9890289,0.4076233,1.2245483c4.5809631,2.4811249,8.7164307,3.5400696,13.8269348,3.5400696
				c9.5596619,0,14.8438721-4.4532928,19.5022583-16.4332047l22.4609375-58.0402222
				c0.112854-0.2919312,0.0791016-0.6217194-0.0996704-0.8807602c-0.1778564-0.2565155-0.46521-0.4116669-0.7789917-0.4116669
				h-13.4777222c-0.4035034,0-0.7650146,0.2565155-0.8967896,0.6357117l-13.8071289,39.4376373l-15.1230469-39.4636078
				c-0.1382751-0.3672256-0.4916077-0.6097412-0.8843689-0.6097412H475.2810059z"/>
			<path fill="#FFFFFF" d="M446.5048218,65.5103455h-12.9465942c-0.5228882,0-0.9486389,0.4260864-0.9486389,0.9486389v56.4847107
				c0,0.5228882,0.4257507,0.9486389,0.9486389,0.9486389h12.9465942c0.5221252,0,0.9486389-0.4257507,0.9486389-0.9486389
				V66.4589844C447.4534607,65.9364319,447.026947,65.5103455,446.5048218,65.5103455z"/>
			<path fill="#FFFFFF" d="M440.0974121,39.7912827c-5.12854,0-9.2912598,4.1523361-9.2912598,9.281311
				c0,5.1318359,4.1627197,9.2887268,9.2912598,9.2887268c5.1269531,0,9.2846069-4.1568909,9.2846069-9.2887268
				C449.382019,43.9436188,445.2243652,39.7912827,440.0974121,39.7912827z"/>
		</g>
		<g>
			<path fill="#FFFFFF" d="M553.5189819,83.6707382c-5.1236572,0-9.1109009-4.1148987-9.1109009-9.1121521
				c0-4.9971771,4.0391846-9.1590424,9.1586304-9.1590424c5.1236572,0,9.1109009,4.1144791,9.1109009,9.1071777
				C562.6776123,79.5044022,558.6417847,83.6707382,553.5189819,83.6707382z M553.5667114,66.3057709
				c-4.6665649,0-8.1984253,3.7097244-8.1984253,8.2528152c0,4.5406418,3.5063477,8.2009583,8.1506958,8.2009583
				c4.6657715,0,8.2009277-3.707283,8.2009277-8.2528229C561.7199097,69.9660797,558.2111816,66.3057709,553.5667114,66.3057709z
				 M555.586731,75.4438095l2.5774536,3.6084518h-2.1731567l-2.3197021-3.3095245h-1.9945068v3.3095245h-1.8189697V69.488472
				h4.2647095c2.2217407,0,3.6834106,1.1368484,3.6834106,3.0505676
				C557.8059692,74.1065292,556.9001465,75.0646057,555.586731,75.4438095z M554.0493164,71.1288147h-2.3724976v3.0250168h2.3724976
				c1.1841431,0,1.890686-0.5792999,1.890686-1.5135193C555.9400024,71.6562576,555.2334595,71.1288147,554.0493164,71.1288147z"/>
		</g>
	</g>
</g>
</svg>
