<?xml version="1.0" encoding="utf-8"?>
<!-- Generator: Adobe Illustrator 17.1.0, SVG Export Plug-In . SVG Version: 6.00 Build 0)  -->
<!DOCTYPE svg PUBLIC "-//W3C//DTD SVG 1.1//EN" "http://www.w3.org/Graphics/SVG/1.1/DTD/svg11.dtd">
<svg version="1.1" id="Calque_1" xmlns="http://www.w3.org/2000/svg" xmlns:xlink="http://www.w3.org/1999/xlink" x="0px" y="0px"
	 viewBox="0 30.4665813 108.0906601 9.9164228" enable-background="new 0 30.4665813 108.0906601 9.9164228" xml:space="preserve">
<metadata><?xpacket begin="﻿" id="W5M0MpCehiHzreSzNTczkc9d"?>
<x:xmpmeta xmlns:x="adobe:ns:meta/" x:xmptk="Adobe XMP Core 5.5-c014 79.151739, 2013/04/03-12:12:15        ">
   <rdf:RDF xmlns:rdf="http://www.w3.org/1999/02/22-rdf-syntax-ns#">
      <rdf:Description rdf:about=""
            xmlns:dc="http://purl.org/dc/elements/1.1/"
            xmlns:xmp="http://ns.adobe.com/xap/1.0/"
            xmlns:xmpGImg="http://ns.adobe.com/xap/1.0/g/img/"
            xmlns:xmpMM="http://ns.adobe.com/xap/1.0/mm/"
            xmlns:stRef="http://ns.adobe.com/xap/1.0/sType/ResourceRef#"
            xmlns:stEvt="http://ns.adobe.com/xap/1.0/sType/ResourceEvent#"
            xmlns:xmpTPg="http://ns.adobe.com/xap/1.0/t/pg/"
            xmlns:stDim="http://ns.adobe.com/xap/1.0/sType/Dimensions#"
            xmlns:xmpG="http://ns.adobe.com/xap/1.0/g/">
         <dc:format>image/svg+xml</dc:format>
         <xmp:CreatorTool>Adobe Illustrator CC (Macintosh)</xmp:CreatorTool>
         <xmp:CreateDate>2017-04-26T08:52:03-06:00</xmp:CreateDate>
         <xmp:ModifyDate>2017-04-26T08:52:03-06:00</xmp:ModifyDate>
         <xmp:MetadataDate>2017-04-26T08:52:03-06:00</xmp:MetadataDate>
         <xmp:Thumbnails>
            <rdf:Alt>
               <rdf:li rdf:parseType="Resource">
                  <xmpGImg:width>256</xmpGImg:width>
                  <xmpGImg:height>24</xmpGImg:height>
                  <xmpGImg:format>JPEG</xmpGImg:format>
                  <xmpGImg:image>/9j/4AAQSkZJRgABAgEASABIAAD/7QAsUGhvdG9zaG9wIDMuMAA4QklNA+0AAAAAABAASAAAAAEA&#xA;AQBIAAAAAQAB/+4ADkFkb2JlAGTAAAAAAf/bAIQABgQEBAUEBgUFBgkGBQYJCwgGBggLDAoKCwoK&#xA;DBAMDAwMDAwQDA4PEA8ODBMTFBQTExwbGxscHx8fHx8fHx8fHwEHBwcNDA0YEBAYGhURFRofHx8f&#xA;Hx8fHx8fHx8fHx8fHx8fHx8fHx8fHx8fHx8fHx8fHx8fHx8fHx8fHx8fHx8f/8AAEQgAGAEAAwER&#xA;AAIRAQMRAf/EAaIAAAAHAQEBAQEAAAAAAAAAAAQFAwIGAQAHCAkKCwEAAgIDAQEBAQEAAAAAAAAA&#xA;AQACAwQFBgcICQoLEAACAQMDAgQCBgcDBAIGAnMBAgMRBAAFIRIxQVEGE2EicYEUMpGhBxWxQiPB&#xA;UtHhMxZi8CRygvElQzRTkqKyY3PCNUQnk6OzNhdUZHTD0uIIJoMJChgZhJRFRqS0VtNVKBry4/PE&#xA;1OT0ZXWFlaW1xdXl9WZ2hpamtsbW5vY3R1dnd4eXp7fH1+f3OEhYaHiImKi4yNjo+Ck5SVlpeYmZ&#xA;qbnJ2en5KjpKWmp6ipqqusra6voRAAICAQIDBQUEBQYECAMDbQEAAhEDBCESMUEFURNhIgZxgZEy&#xA;obHwFMHR4SNCFVJicvEzJDRDghaSUyWiY7LCB3PSNeJEgxdUkwgJChgZJjZFGidkdFU38qOzwygp&#xA;0+PzhJSktMTU5PRldYWVpbXF1eX1RlZmdoaWprbG1ub2R1dnd4eXp7fH1+f3OEhYaHiImKi4yNjo&#xA;+DlJWWl5iZmpucnZ6fkqOkpaanqKmqq6ytrq+v/aAAwDAQACEQMRAD8A9U4q7FXYq7FXYq7FXYq7&#xA;FXYq7FXYq7FXYq7FXYq7FXYq7FXYq7FXYq7FXYq7FXYq7FXYq7FXYq7FXYq7FXYq7FXYq7FXYq7F&#xA;XYq7FXYq7FXYq7FXYq7FXYq7FXYq7FXYq7FXYq7FXYq7FXYq7FXYq7FXYq7FXYq7FXYq7FXYq7FX&#xA;Yq7FXYq7FXYq7FXYq7FXYq7FXYq7FXYq7FXYq7FXYq7FXYq7FXYq7FXYq7FXYq7FXYq7FX//2Q==</xmpGImg:image>
               </rdf:li>
            </rdf:Alt>
         </xmp:Thumbnails>
         <xmpMM:DocumentID>xmp.did:85f25308-2b36-43b8-b457-3164c51c7be3</xmpMM:DocumentID>
         <xmpMM:InstanceID>xmp.iid:85f25308-2b36-43b8-b457-3164c51c7be3</xmpMM:InstanceID>
         <xmpMM:DerivedFrom rdf:parseType="Resource">
            <stRef:instanceID>uuid:981E3EA93164DF118E6D90B556E55533</stRef:instanceID>
            <stRef:documentID>uuid:971E3EA93164DF118E6D90B556E55533</stRef:documentID>
            <stRef:originalDocumentID>uuid:971E3EA93164DF118E6D90B556E55533</stRef:originalDocumentID>
         </xmpMM:DerivedFrom>
         <xmpMM:OriginalDocumentID>uuid:971E3EA93164DF118E6D90B556E55533</xmpMM:OriginalDocumentID>
         <xmpMM:History>
            <rdf:Seq>
               <rdf:li rdf:parseType="Resource">
                  <stEvt:action>saved</stEvt:action>
                  <stEvt:instanceID>xmp.iid:85f25308-2b36-43b8-b457-3164c51c7be3</stEvt:instanceID>
                  <stEvt:when>2017-04-26T08:52:03-06:00</stEvt:when>
                  <stEvt:softwareAgent>Adobe Illustrator CC (Macintosh)</stEvt:softwareAgent>
                  <stEvt:changed>/</stEvt:changed>
               </rdf:li>
            </rdf:Seq>
         </xmpMM:History>
         <xmpTPg:MaxPageSize rdf:parseType="Resource">
            <stDim:w>108.090662</stDim:w>
            <stDim:h>9.916423</stDim:h>
            <stDim:unit>Pixels</stDim:unit>
         </xmpTPg:MaxPageSize>
         <xmpTPg:NPages>1</xmpTPg:NPages>
         <xmpTPg:HasVisibleTransparency>False</xmpTPg:HasVisibleTransparency>
         <xmpTPg:HasVisibleOverprint>False</xmpTPg:HasVisibleOverprint>
         <xmpTPg:SwatchGroups>
            <rdf:Seq>
               <rdf:li rdf:parseType="Resource">
                  <xmpG:groupName>Default Swatch Group</xmpG:groupName>
                  <xmpG:groupType>0</xmpG:groupType>
               </rdf:li>
            </rdf:Seq>
         </xmpTPg:SwatchGroups>
      </rdf:Description>
   </rdf:RDF>
</x:xmpmeta>
                                                                                                    
                                                                                                    
                                                                                                    
                                                                                                    
                                                                                                    
                                                                                                    
                                                                                                    
                                                                                                    
                                                                                                    
                                                                                                    
                                                                                                    
                                                                                                    
                                                                                                    
                                                                                                    
                                                                                                    
                                                                                                    
                                                                                                    
                                                                                                    
                                                                                                    
                                                                                                    
                           
<?xpacket end="w"?>
	</metadata>
<path fill="#FFFFFF" d="M0.2585739,36.3973312c-0.0476385,0-0.0854546,0.0368309-0.0915936,0.0893822L0,37.7550278
	l0.1669803,1.24646c0.006139,0.0525475,0.0439551,0.089138,0.0915936,0.089138c0.0461651,0,0.0837357-0.0363426,0.0911025-0.0886497
	l0,0v-0.0002441c0,0,0,0,0,0.0002441l0.1979208-1.2469482l-0.1979208-1.2685585
	C0.3425553,36.4341621,0.3044935,36.3973312,0.2585739,36.3973312z M1.1975927,35.704361
	c-0.0078579-0.054512-0.0469018-0.092083-0.0950315-0.092083c-0.0483751,0-0.0884013,0.0387993-0.0950314,0.092083
	c0,0.0004921-0.2244413,2.0506668-0.2244413,2.0506668l0.2244413,2.0052376
	c0.0063845,0.0537758,0.0464107,0.0925751,0.0950314,0.0925751c0.0478841,0,0.086928-0.0378151,0.0947859-0.092083
	l0.2553817-2.0057297L1.1975927,35.704361z M4.7346292,33.8128166c-0.0920849,0-0.1682081,0.0753899-0.1726279,0.1711578
	L4.383234,37.7567482l0.1787672,2.4381561c0.0046654,0.0952797,0.080543,0.1704178,0.1726279,0.1704178
	c0.0915937,0,0.1674714-0.075386,0.172874-0.1709061v0.0007362l0.2020955-2.4384041l-0.2020955-3.7727737
	C4.9021006,33.8882065,4.8262229,33.8128166,4.7346292,33.8128166z M2.9039845,35.1241035
	c-0.0707211,0-0.1284275,0.0564804-0.1340752,0.1318665l-0.2013586,2.499794l0.2013586,2.4185143
	c0.0054023,0.074894,0.0633543,0.1313744,0.1340752,0.1313744c0.0699844,0,0.127691-0.0564804,0.1338298-0.1313744
	l0.2288613-2.4185143l-0.2288613-2.5002823C3.0316753,35.180584,2.973969,35.1241035,2.9039845,35.1241035z M6.5949869,40.365078
	c0.1141849,0,0.2070065-0.0920868,0.2116718-0.2099533l0.1753297-2.3971519l-0.1750841-5.0229149
	c-0.0046654-0.1178665-0.097487-0.2099533-0.2116723-0.2099533c-0.1151671,0-0.2082343,0.0923309-0.2119179,0.2101974
	c0,0.000248-0.1554389,5.0224266-0.1554389,5.0224266l0.1554389,2.3981323
	C6.3869977,40.272747,6.4800649,40.365078,6.5949869,40.365078z M10.4036121,40.3763733
	c0.1571579,0,0.2868128-0.1294098,0.2897596-0.2885323v0.0017204V40.087841l0.1222887-2.328392l-0.1222887-5.8010941
	c-0.0027018-0.1588783-0.1326017-0.2885323-0.2897596-0.2885323c-0.1574039,0-0.2873039,0.1294098-0.2897606,0.2887764
	l-0.1092739,5.7988853c0,0.0036812,0.1092739,2.3318291,0.1092739,2.3318291
	C10.1163073,40.2469635,10.2464542,40.3763733,10.4036121,40.3763733z M8.4848118,40.3672867
	c0.136776,0,0.2470322-0.1097641,0.2507153-0.249733v0.0017204l0.1488094-2.3608093l-0.1490545-5.0592575
	c-0.0036831-0.1399689-0.1139393-0.2494888-0.2507162-0.2494888c-0.1377583,0-0.2480145,0.10952-0.2509613,0.2494888
	L8.1012478,37.758709l0.1326017,2.3603172C8.2367964,40.2575226,8.3470526,40.3672867,8.4848118,40.3672867z M3.8157461,40.3451881
	c0.0812802,0,0.1470904-0.0650749,0.1532292-0.1507721l0.2156012-2.438652l-0.2156012-2.3197975
	c-0.0058935-0.085701-0.0717032-0.1502838-0.153229-0.1502838c-0.0825081,0-0.1483178,0.0650749-0.1534746,0.1512642
	L3.4724545,37.755764l0.1898172,2.4384041C3.6676738,40.2801132,3.7332382,40.3451881,3.8157461,40.3451881z M1.9995894,40.2116051
	c0.0594254,0,0.1075549-0.0469055,0.1144304-0.1117325l0.2421217-2.3446007l-0.2418759-2.4330025
	c-0.0071213-0.0650711-0.0552509-0.1119728-0.1146762-0.1119728c-0.0601619,0-0.1082916,0.0471458-0.1144307,0.1119728
	c0,0.000248-0.2131455,2.4330025-0.2131455,2.4330025l0.2131455,2.3441086
	C1.8910524,40.1644554,1.9391819,40.2116051,1.9995894,40.2116051z M9.4405279,32.6149788
	c-0.1485634,0-0.2676601,0.1181145-0.270607,0.2693787l-0.1208153,4.8745995l0.1208153,2.3455811
	c0.0029469,0.1493034,0.1217976,0.2674141,0.270607,0.2674141c0.1483183,0,0.2666769-0.1178665,0.2701149-0.2691307v0.0019646
	l0.1355486-2.3455849l-0.1355486-4.8753357C9.7072048,32.7330933,9.5888462,32.6149788,9.4405279,32.6149788z M5.6613703,40.3699875
	c0.1026435,0,0.1873617-0.0837326,0.1922731-0.1905518l0.1885896-2.4219513l-0.1885896-4.6356697
	c-0.005157-0.1070633-0.0896292-0.1905556-0.1922731-0.1905556c-0.1036263,0-0.1880989,0.0837364-0.1925187,0.1905556
	c0,0.0002441-0.1669803,4.6356697-0.1669803,4.6356697l0.1672258,2.4229317
	C5.4732714,40.2862511,5.557744,40.3699875,5.6613703,40.3699875z M7.7672868,40.1413727v-0.0012283l0.1620693-2.3819237
	l-0.1620693-5.1921082c-0.0039291-0.1289177-0.1055903-0.2300873-0.231071-0.2300873
	c-0.1262178,0-0.227879,0.1009216-0.231317,0.2300873l-0.1438975,5.1918602l0.1441431,2.383152
	c0.003438,0.1276932,0.1050992,0.2286186,0.2310715,0.2286186c0.1257257,0,0.2268968-0.1009254,0.231071-0.2293549V40.1413727z
	 M20.0251179,34.7653427c-0.3847923,0-0.7519016,0.0778427-1.0863552,0.2180557
	c-0.2234592-2.5312233-2.3460751-4.5168171-4.9352512-4.5168171c-0.633544,0-1.2511253,0.1247444-1.7965126,0.33568
	c-0.2119169,0.082016-0.2683954,0.1664886-0.2703609,0.3302765v8.9138031
	c0.0022097,0.1718941,0.1355476,0.315052,0.3032656,0.3319969c0.0071211,0.0007362,7.7348719,0.0046654,7.7849665,0.0046654
	c1.5509529,0,2.8084641-1.2575073,2.8084641-2.8087082C22.833334,36.023098,21.5760689,34.7653427,20.0251179,34.7653427z
	 M11.3625202,31.1246796c-0.1686993,0-0.3071938,0.1384964-0.3096504,0.3086681l-0.126708,6.3268375l0.1269531,2.2962227
	c0.0022106,0.167717,0.1407061,0.3059692,0.3094044,0.3059692c0.1682091,0,0.3067045-0.1382523,0.3091593-0.3084221v0.0027008
	l0.1377592-2.2964706l-0.1377583-6.3273277C11.6692247,31.263176,11.5307293,31.1246796,11.3625202,31.1246796z
	 M28.9026661,34.6539993c-1.3529987-0.3180008-1.7189999-0.487999-1.7189999-1.0239983
	c0-0.3779984,0.3050003-0.769001,1.2189999-0.769001c0.7810001,0,1.3910007,0.3170013,1.9390011,0.8779984l1.230999-1.1940002
	c-0.8050003-0.8409996-1.7799988-1.3409996-3.1079998-1.3409996c-1.684,0-3.0489998,0.9510002-3.0489998,2.5
	c0,1.6819992,1.0980015,2.1819992,2.6700001,2.5470009c1.6090012,0.3650017,1.9020004,0.6100006,1.9020004,1.1590004
	c0,0.6459999-0.4769993,0.9269981-1.4869995,0.9269981c-0.8169994,0-1.5849991-0.2799988-2.1829987-0.9770012l-1.2310028,1.0980034
	c0.6459999,0.9510002,1.8910007,1.5480003,3.316,1.5480003c2.3299999,0,3.3540001-1.0970001,3.3540001-2.7179985
	C31.7566662,35.4339981,30.2566662,34.9710007,28.9026661,34.6539993z M36.7566681,31.2039986
	c-2.3280029,0-3.7050018,1.8040009-3.7050018,4.401001s1.3769989,4.4000015,3.7050018,4.4000015
	c2.3279991,0,3.7070007-1.8030014,3.7070007-4.4000015S39.0846672,31.2039986,36.7566681,31.2039986z M36.7566681,38.3120003
	c-1.3770027,0-1.9510002-1.1829987-1.9510002-2.7060013c0-1.5239983,0.5739975-2.7070007,1.9510002-2.7070007
	c1.3789978,0,1.9510002,1.1829987,1.9510002,2.7070007C38.7076683,37.1290016,38.1356659,38.3120003,36.7566681,38.3120003z
	 M47.3526688,36.1300011c0,1.3650017-0.6720009,2.2070007-1.7560005,2.2070007c-1.0849991,0-1.743-0.8660011-1.743-2.230999
	v-4.769001H42.145668v4.7929993c0,2.4860001,1.3909988,3.8759995,3.4510002,3.8759995
	c2.1699982,0,3.4629974-1.4269981,3.4629974-3.9000015v-4.769001h-1.7070007
	C47.3526649,31.336998,47.3526649,36.1300011,47.3526688,36.1300011z M56.4226685,34.9469986
	c0,0.4760017,0.0239983,1.5480003,0.0239983,1.8650017c-0.1100006-0.2200012-0.3899994-0.6459999-0.5970001-0.9640007
	l-3.0250015-4.512001h-1.6329994v8.5359993h1.6829987v-3.7560005c0-0.4760017-0.0239983-1.5480003-0.0239983-1.8650017
	c0.1090012,0.2190018,0.3909988,0.6459999,0.5970001,0.9640007l3.1339989,4.6570015h1.5239983v-8.5359993h-1.6829987
	C56.4226646,31.3359985,56.4226646,34.9469986,56.4226685,34.9469986z M62.9696693,31.3370018h-2.6699982v8.5359993h2.5470009
	c2.1949997,0,4.3659973-1.269001,4.3659973-4.2680016C67.2126694,32.4830017,65.4076691,31.3370018,62.9696693,31.3370018z
	 M62.8466682,38.2150002h-0.8400002v-5.218998h0.9020004c1.8050003,0,2.548996,0.8650017,2.548996,2.6090012
	C65.4576645,37.1660004,64.6396637,38.2150002,62.8466682,38.2150002z M72.4916687,32.8979988
	c0.7679977,0,1.2559967,0.3419991,1.560997,0.9269981l1.5849991-0.730999
	c-0.5369949-1.1090012-1.5130005-1.8899994-3.1220016-1.8899994c-2.2289963,0-3.7910004,1.8040009-3.7910004,4.401001
	c0,2.6940002,1.4990005,4.4000015,3.7300034,4.4000015c1.548996,0,2.572998-0.7190018,3.1579971-1.9259987l-1.4379959-0.8540001
	c-0.451004,0.757-0.9029999,1.0859985-1.6710052,1.0859985c-1.2799988,0-2.0239944-1.1710014-2.0239944-2.7060013
	C70.4786682,34.0209999,71.2126694,32.8979988,72.4916687,32.8979988z M78.8226624,31.3370018h-1.7070007v8.5359993h5.1300049
	V38.189003h-3.4230042V31.3370018z M86.7426605,31.2039986c-2.3300018,0-3.7070007,1.8040009-3.7070007,4.401001
	s1.3769989,4.4000015,3.7070007,4.4000015c2.3280029,0,3.7060013-1.8030014,3.7060013-4.4000015
	S89.0706635,31.2039986,86.7426605,31.2039986z M86.7426605,38.3120003c-1.3789978,0-1.9509964-1.1829987-1.9509964-2.7060013
	c0-1.5239983,0.5719986-2.7070007,1.9509964-2.7070007c1.3759995,0,1.9489975,1.1829987,1.9489975,2.7070007
	C88.6916656,37.1290016,88.1186676,38.3120003,86.7426605,38.3120003z M97.3366623,36.1300011
	c0,1.3650017-0.6689987,2.2070007-1.7539978,2.2070007c-1.086998,0-1.7440033-0.8660011-1.7440033-2.230999v-4.769001h-1.7070007
	v4.7929993c0,2.4860001,1.3899994,3.8759995,3.4509964,3.8759995c2.1699982,0,3.461998-1.4269981,3.461998-3.9000015v-4.769001
	h-1.7079926V36.1300011z M103.8476639,31.3370018h-2.6689987v8.5359993h2.5469971
	c2.1959991,0,4.3649979-1.269001,4.3649979-4.2680016C108.0906677,32.4830017,106.2866669,31.3370018,103.8476639,31.3370018z
	 M103.7256622,38.2150002h-0.8410034v-5.218998h0.9029999c1.8030014,0,2.5469971,0.8650017,2.5469971,2.6090012
	C106.3346634,37.1660004,105.517662,38.2150002,103.7256622,38.2150002z"/>
</svg>
